<?xml version="1.0" encoding="UTF-8" standalone="no"?>
<!DOCTYPE svg PUBLIC "-//W3C//DTD SVG 1.1//EN" "http://www.w3.org/Graphics/SVG/1.1/DTD/svg11.dtd">
<svg width="100%" height="100%" viewBox="0 0 512 512" version="1.1" xmlns="http://www.w3.org/2000/svg" xmlns:xlink="http://www.w3.org/1999/xlink" xml:space="preserve" xmlns:serif="http://www.serif.com/" style="fill-rule:evenodd;clip-rule:evenodd;stroke-linejoin:round;stroke-miterlimit:2;">
    <g transform="matrix(1,0,0,1,18.0977,-77.0042)">
        <g id="Background">
            <g>
                <g transform="matrix(400,0,0,400,38.6601,512)">
                    <path d="M0.578,-0.099C0.571,-0.128 0.542,-0.138 0.514,-0.139C0.474,-0.14 0.433,-0.137 0.392,-0.135C0.328,-0.132 0.263,-0.127 0.199,-0.121C0.227,-0.149 0.255,-0.177 0.282,-0.206C0.338,-0.266 0.404,-0.329 0.439,-0.404C0.469,-0.468 0.476,-0.548 0.432,-0.608C0.388,-0.67 0.31,-0.679 0.24,-0.663C0.167,-0.646 0.077,-0.603 0.059,-0.523C0.05,-0.486 0.107,-0.47 0.116,-0.508C0.132,-0.576 0.237,-0.611 0.299,-0.611C0.334,-0.612 0.368,-0.6 0.387,-0.569C0.406,-0.54 0.408,-0.501 0.399,-0.468C0.379,-0.387 0.308,-0.321 0.253,-0.262C0.187,-0.191 0.118,-0.124 0.049,-0.058C0.03,-0.04 0.044,-0.008 0.07,-0.007C0.23,-0.006 0.39,-0.016 0.549,-0.036C0.572,-0.038 0.581,-0.062 0.576,-0.079C0.578,-0.084 0.579,-0.091 0.578,-0.099Z" style="fill-rule:nonzero;"/>
                </g>
                <g transform="matrix(233.2,0,0,219.208,286.26,303.8)">
                    <path d="M0.578,-0.099C0.571,-0.128 0.542,-0.138 0.514,-0.139C0.474,-0.14 0.433,-0.137 0.392,-0.135C0.328,-0.132 0.263,-0.127 0.199,-0.121C0.227,-0.149 0.255,-0.177 0.282,-0.206C0.338,-0.266 0.404,-0.329 0.439,-0.404C0.469,-0.468 0.476,-0.548 0.432,-0.608C0.388,-0.67 0.31,-0.679 0.24,-0.663C0.167,-0.646 0.077,-0.603 0.059,-0.523C0.05,-0.486 0.107,-0.47 0.116,-0.508C0.132,-0.576 0.237,-0.611 0.299,-0.611C0.334,-0.612 0.368,-0.6 0.387,-0.569C0.406,-0.54 0.408,-0.501 0.399,-0.468C0.379,-0.387 0.308,-0.321 0.253,-0.262C0.187,-0.191 0.118,-0.124 0.049,-0.058C0.03,-0.04 0.044,-0.008 0.07,-0.007C0.23,-0.006 0.39,-0.016 0.549,-0.036C0.572,-0.038 0.581,-0.062 0.576,-0.079C0.578,-0.084 0.579,-0.091 0.578,-0.099Z" style="fill-rule:nonzero;"/>
                </g>
            </g>
        </g>
    </g>
</svg>
